<svg width="166" height="54" viewBox="0 0 166 54" fill="none" xmlns="http://www.w3.org/2000/svg">
<g opacity="0.9">
<path d="M26.1143 44.8115L15.71 47.6963L5.30469 44.8115V35.7461L15.71 38.6309L26.1143 35.7461V44.8115ZM42.082 28.7412L15.6064 35.7461L5.51074 32.8613V23.7959L15.6064 26.6807L42.082 19.6758V28.7412ZM36.1064 3.81055L46.2021 7.51953H46.2031V16.585L15.6064 23.5898L5.51074 20.7061V11.6406L15.6064 14.5244L45.4033 7.70215L36.1064 4.63477L6.23242 11.8457L5.51074 11.6396V10.8154L36.1064 3.81055Z" fill="#0D2B45"/>
</g>
<path opacity="0.9" d="M58.28 32V31.36C59.2667 31.1733 60.04 30.8267 60.6 30.32C61.1867 29.8133 61.48 28.9067 61.48 27.6V7.6C61.48 6.29333 61.1867 5.38667 60.6 4.88C60.04 4.37333 59.2667 4.02667 58.28 3.84V3.2H61.48H67.68V27.6C67.68 28.9067 67.9733 29.8133 68.56 30.32C69.1733 30.8267 69.9867 31.1733 71 31.36V32H67.68H61.48H58.28ZM66.48 16.52H71.6C72.9067 16.52 73.8133 16.2133 74.32 15.6C74.8267 14.96 75.1733 14.12 75.36 13.08H76V16.52V17.96V21.4H75.36C75.1733 20.36 74.8267 19.5333 74.32 18.92C73.8133 18.28 72.9067 17.96 71.6 17.96H66.48V16.52ZM66.48 3.2H80.12L80.24 4.48L80.76 10.72L80.04 10.76C79.6133 9 78.84 7.54667 77.72 6.4C76.6267 5.22667 74.9333 4.64 72.64 4.64H66.48V3.2ZM80.9409 32V31.4C81.8209 31.24 82.5143 30.9333 83.0209 30.48C83.5543 30 83.8209 29.1467 83.8209 27.92V15.92C83.8209 14.6933 83.5543 13.8533 83.0209 13.4C82.5143 12.92 81.8209 12.6 80.9409 12.44V11.84H83.8209H89.5809V27.92C89.5809 29.1467 89.8343 30 90.3409 30.48C90.8743 30.9333 91.5809 31.24 92.4609 31.4V32H89.5809H83.8209H80.9409ZM85.9409 8.64C85.0076 8.64 84.1943 8.30666 83.5009 7.64C82.8343 6.97333 82.5009 6.18667 82.5009 5.28C82.5009 4.32 82.8343 3.52 83.5009 2.88C84.1676 2.21333 84.9809 1.88 85.9409 1.88C86.8743 1.88 87.6743 2.21333 88.3409 2.88C89.0343 3.52 89.3809 4.32 89.3809 5.28C89.3809 6.21333 89.0343 7.01333 88.3409 7.68C87.6476 8.32 86.8476 8.64 85.9409 8.64ZM105.699 32V31.4C106.419 31.24 106.992 30.9333 107.419 30.48C107.845 30 108.059 29.1467 108.059 27.92V18.88C108.059 17.6267 107.765 16.72 107.179 16.16C106.592 15.5733 105.845 15.2667 104.939 15.24C104.245 15.2133 103.552 15.36 102.859 15.68C102.165 16 101.525 16.4667 100.939 17.08V16.28C101.499 14.9467 102.352 13.84 103.499 12.96C104.672 12.0533 106.045 11.6 107.619 11.6C108.739 11.6 109.765 11.8533 110.699 12.36C111.659 12.84 112.419 13.5733 112.979 14.56C113.565 15.5467 113.859 16.72 113.859 18.08V27.92C113.859 29.1467 114.112 30 114.619 30.48C115.125 30.9333 115.792 31.24 116.619 31.4V32H113.859H108.059H105.699ZM92.7387 32V31.4C93.5921 31.24 94.2587 30.9333 94.7387 30.48C95.2454 30 95.4987 29.1467 95.4987 27.92V15.92C95.4987 14.6933 95.2454 13.8533 94.7387 13.4C94.2587 12.92 93.5921 12.6 92.7387 12.44V11.84H95.4987H101.339V27.92C101.339 29.1467 101.539 30 101.939 30.48C102.365 30.9333 102.939 31.24 103.659 31.4V32H101.339H95.4987H92.7387ZM135.827 21.84C135.827 20.5067 135.36 19.6 134.427 19.12C133.493 18.6133 132.2 18.2667 130.547 18.08V17.4H135.827H141.467H144.347V18.08C143.467 18.2667 142.76 18.6133 142.227 19.12C141.72 19.6 141.467 20.5067 141.467 21.84V29.44L135.827 30.68V21.84ZM131.387 32.48C128.56 32.48 126.04 31.8933 123.827 30.72C121.613 29.5467 119.88 27.8667 118.627 25.68C117.373 23.4933 116.747 20.9333 116.747 18C116.747 15.0933 117.4 12.4933 118.707 10.2C120.013 7.88 121.813 6.06667 124.107 4.76C126.4 3.45333 128.96 2.8 131.787 2.8C133.093 2.8 134.52 2.94667 136.067 3.24C137.64 3.50666 139.24 3.94666 140.867 4.56V12.6H140.267C139.547 10.2 138.467 8.21333 137.027 6.64C135.587 5.04 133.893 4.24 131.947 4.24C130.293 4.24 128.827 4.81333 127.547 5.96C126.267 7.08 125.267 8.64 124.547 10.64C123.853 12.64 123.507 14.8667 123.507 17.32C123.507 19.9333 123.84 22.28 124.507 24.36C125.2 26.44 126.173 28.08 127.427 29.28C128.68 30.4533 130.147 31.04 131.827 31.04C133.267 31.04 134.6 30.6667 135.827 29.92C137.053 29.1733 138.213 28.2267 139.307 27.08L141.467 29.44C140.107 30.4 138.573 31.1467 136.867 31.68C135.187 32.2133 133.36 32.48 131.387 32.48ZM154.607 32.4C152.847 32.4 151.181 31.9867 149.607 31.16C148.034 30.3067 146.767 29.08 145.807 27.48C144.874 25.88 144.407 24.0133 144.407 21.88C144.407 19.7467 144.874 17.9067 145.807 16.36C146.767 14.7867 148.034 13.6 149.607 12.8C151.181 12 152.847 11.6 154.607 11.6C156.394 11.6 158.074 12.0133 159.647 12.84C161.221 13.64 162.487 14.8267 163.447 16.4C164.434 17.9467 164.927 19.7733 164.927 21.88C164.927 24.0133 164.434 25.88 163.447 27.48C162.487 29.08 161.221 30.3067 159.647 31.16C158.074 31.9867 156.394 32.4 154.607 32.4ZM154.607 31.12C155.567 31.12 156.341 30.6667 156.927 29.76C157.541 28.8533 157.967 27.72 158.207 26.36C158.474 25 158.607 23.5067 158.607 21.88C158.607 20.2533 158.474 18.7867 158.207 17.48C157.967 16.1733 157.541 15.08 156.927 14.2C156.341 13.32 155.567 12.88 154.607 12.88C153.647 12.88 152.874 13.32 152.287 14.2C151.727 15.08 151.327 16.1733 151.087 17.48C150.847 18.76 150.727 20.2267 150.727 21.88C150.727 24.5467 151.021 26.76 151.607 28.52C152.194 30.2533 153.194 31.12 154.607 31.12Z" fill="#0D2B45"/>
<path opacity="0.8" d="M62.108 44.4545V45.6477H58.2386V44.4545H62.108ZM59.206 51V43.8366C59.206 43.3963 59.2969 43.0298 59.4787 42.7372C59.6634 42.4446 59.9105 42.2259 60.2202 42.081C60.5298 41.9361 60.8736 41.8636 61.2514 41.8636C61.5185 41.8636 61.7557 41.8849 61.9631 41.9276C62.1705 41.9702 62.3239 42.0085 62.4233 42.0426L62.1165 43.2358C62.0511 43.2159 61.9688 43.196 61.8693 43.1761C61.7699 43.1534 61.6591 43.142 61.5369 43.142C61.25 43.142 61.0469 43.2116 60.9276 43.3509C60.8111 43.4872 60.7528 43.6832 60.7528 43.9389V51H59.206ZM65.9851 51.1278C65.3459 51.1278 64.7919 50.9872 64.3231 50.706C63.8544 50.4247 63.4908 50.0312 63.2322 49.5256C62.9765 49.0199 62.8487 48.429 62.8487 47.7528C62.8487 47.0767 62.9765 46.4844 63.2322 45.9759C63.4908 45.4673 63.8544 45.0724 64.3231 44.7912C64.7919 44.5099 65.3459 44.3693 65.9851 44.3693C66.6243 44.3693 67.1783 44.5099 67.647 44.7912C68.1158 45.0724 68.478 45.4673 68.7337 45.9759C68.9922 46.4844 69.1214 47.0767 69.1214 47.7528C69.1214 48.429 68.9922 49.0199 68.7337 49.5256C68.478 50.0312 68.1158 50.4247 67.647 50.706C67.1783 50.9872 66.6243 51.1278 65.9851 51.1278ZM65.9936 49.892C66.3402 49.892 66.63 49.7969 66.8629 49.6065C67.0959 49.4134 67.2692 49.1548 67.3828 48.831C67.4993 48.5071 67.5575 48.1463 67.5575 47.7486C67.5575 47.348 67.4993 46.9858 67.3828 46.6619C67.2692 46.3352 67.0959 46.0753 66.8629 45.8821C66.63 45.6889 66.3402 45.5923 65.9936 45.5923C65.6385 45.5923 65.343 45.6889 65.1072 45.8821C64.8743 46.0753 64.6996 46.3352 64.5831 46.6619C64.4694 46.9858 64.4126 47.348 64.4126 47.7486C64.4126 48.1463 64.4694 48.5071 64.5831 48.831C64.6996 49.1548 64.8743 49.4134 65.1072 49.6065C65.343 49.7969 65.6385 49.892 65.9936 49.892ZM70.4907 51V44.4545H71.9865V45.5455H72.0547C72.174 45.1676 72.3785 44.8764 72.6683 44.6719C72.9609 44.4645 73.2947 44.3608 73.6697 44.3608C73.7549 44.3608 73.8501 44.3651 73.9552 44.3736C74.0632 44.3793 74.1527 44.3892 74.2237 44.4034V45.8224C74.1584 45.7997 74.0547 45.7798 73.9126 45.7628C73.7734 45.7429 73.6385 45.733 73.5078 45.733C73.2265 45.733 72.9737 45.794 72.7493 45.9162C72.5277 46.0355 72.353 46.2017 72.2251 46.4148C72.0973 46.6278 72.0334 46.8736 72.0334 47.152V51H70.4907ZM78.4133 51V42.2727H81.686C82.3565 42.2727 82.919 42.3977 83.3735 42.6477C83.8309 42.8977 84.1761 43.2415 84.409 43.679C84.6448 44.1136 84.7627 44.608 84.7627 45.1619C84.7627 45.7216 84.6448 46.2187 84.409 46.6534C84.1732 47.0881 83.8252 47.4304 83.365 47.6804C82.9048 47.9276 82.338 48.0511 81.6647 48.0511H79.4957V46.7514H81.4516C81.8437 46.7514 82.1647 46.6832 82.4147 46.5469C82.6647 46.4105 82.8494 46.223 82.9687 45.9844C83.0909 45.7457 83.1519 45.4716 83.1519 45.1619C83.1519 44.8523 83.0909 44.5795 82.9687 44.3438C82.8494 44.108 82.6633 43.9247 82.4105 43.794C82.1605 43.6605 81.838 43.5938 81.4431 43.5938H79.9943V51H78.4133ZM88.9317 51.1278C88.2755 51.1278 87.7087 50.9915 87.2315 50.7188C86.757 50.4432 86.392 50.054 86.1363 49.5511C85.8806 49.0455 85.7528 48.4503 85.7528 47.7656C85.7528 47.0923 85.8806 46.5014 86.1363 45.9929C86.3948 45.4815 86.7556 45.0838 87.2187 44.7997C87.6817 44.5128 88.2258 44.3693 88.8508 44.3693C89.2542 44.3693 89.6349 44.4347 89.9928 44.5653C90.3536 44.6932 90.6718 44.892 90.9474 45.1619C91.2258 45.4318 91.4445 45.7756 91.6036 46.1932C91.7627 46.608 91.8423 47.1023 91.8423 47.6761V48.1491H86.4772V47.1094H90.3636C90.3607 46.8139 90.2968 46.5511 90.1718 46.321C90.0468 46.0881 89.8721 45.9048 89.6477 45.7713C89.4261 45.6378 89.1675 45.571 88.8721 45.571C88.5567 45.571 88.2798 45.6477 88.0411 45.8011C87.8025 45.9517 87.6164 46.1506 87.4829 46.3977C87.3522 46.642 87.2854 46.9105 87.2826 47.2031V48.1108C87.2826 48.4915 87.3522 48.8182 87.4914 49.0909C87.6306 49.3608 87.8252 49.5682 88.0752 49.7131C88.3252 49.8551 88.6178 49.9261 88.9531 49.9261C89.1775 49.9261 89.3806 49.8949 89.5624 49.8324C89.7442 49.767 89.9019 49.6719 90.0354 49.5469C90.169 49.4219 90.2698 49.267 90.338 49.0824L91.7783 49.2443C91.6874 49.625 91.5141 49.9574 91.2585 50.2415C91.0056 50.5227 90.6817 50.7415 90.2869 50.8977C89.892 51.0511 89.4403 51.1278 88.9317 51.1278ZM93.2073 51V44.4545H94.703V45.5455H94.7712C94.8905 45.1676 95.0951 44.8764 95.3849 44.6719C95.6775 44.4645 96.0113 44.3608 96.3863 44.3608C96.4715 44.3608 96.5667 44.3651 96.6718 44.3736C96.7797 44.3793 96.8692 44.3892 96.9403 44.4034V45.8224C96.8749 45.7997 96.7712 45.7798 96.6292 45.7628C96.49 45.7429 96.355 45.733 96.2243 45.733C95.9431 45.733 95.6903 45.794 95.4658 45.9162C95.2442 46.0355 95.0695 46.2017 94.9417 46.4148C94.8138 46.6278 94.7499 46.8736 94.7499 47.152V51H93.2073ZM103.198 46.1847L101.792 46.3381C101.752 46.196 101.683 46.0625 101.583 45.9375C101.487 45.8125 101.356 45.7116 101.191 45.6349C101.027 45.5582 100.825 45.5199 100.586 45.5199C100.265 45.5199 99.9953 45.5895 99.7765 45.7287C99.5606 45.8679 99.4541 46.0483 99.4569 46.2699C99.4541 46.4602 99.5237 46.6151 99.6657 46.7344C99.8106 46.8537 100.049 46.9517 100.382 47.0284L101.498 47.267C102.117 47.4006 102.578 47.6122 102.879 47.902C103.183 48.1918 103.336 48.571 103.339 49.0398C103.336 49.4517 103.215 49.8153 102.977 50.1307C102.741 50.4432 102.413 50.6875 101.992 50.8636C101.572 51.0398 101.089 51.1278 100.544 51.1278C99.7424 51.1278 99.0976 50.9602 98.6089 50.625C98.1203 50.2869 97.8291 49.8168 97.7353 49.2145L99.2396 49.0696C99.3078 49.3651 99.4527 49.5881 99.6743 49.7386C99.8959 49.8892 100.184 49.9645 100.539 49.9645C100.906 49.9645 101.2 49.8892 101.421 49.7386C101.646 49.5881 101.758 49.402 101.758 49.1804C101.758 48.9929 101.686 48.8381 101.541 48.7159C101.399 48.5937 101.177 48.5 100.876 48.4347L99.7595 48.2003C99.1316 48.0696 98.6672 47.8494 98.366 47.5398C98.0649 47.2273 97.9157 46.8324 97.9186 46.3551C97.9157 45.9517 98.0251 45.6023 98.2467 45.3068C98.4711 45.0085 98.7822 44.7784 99.1799 44.6165C99.5805 44.4517 100.042 44.3693 100.565 44.3693C101.332 44.3693 101.936 44.5327 102.376 44.8594C102.819 45.1861 103.093 45.6278 103.198 46.1847ZM107.526 51.1278C106.887 51.1278 106.333 50.9872 105.864 50.706C105.395 50.4247 105.032 50.0312 104.773 49.5256C104.518 49.0199 104.39 48.429 104.39 47.7528C104.39 47.0767 104.518 46.4844 104.773 45.9759C105.032 45.4673 105.395 45.0724 105.864 44.7912C106.333 44.5099 106.887 44.3693 107.526 44.3693C108.165 44.3693 108.719 44.5099 109.188 44.7912C109.657 45.0724 110.019 45.4673 110.275 45.9759C110.533 46.4844 110.663 47.0767 110.663 47.7528C110.663 48.429 110.533 49.0199 110.275 49.5256C110.019 50.0312 109.657 50.4247 109.188 50.706C108.719 50.9872 108.165 51.1278 107.526 51.1278ZM107.535 49.892C107.881 49.892 108.171 49.7969 108.404 49.6065C108.637 49.4134 108.81 49.1548 108.924 48.831C109.04 48.5071 109.099 48.1463 109.099 47.7486C109.099 47.348 109.04 46.9858 108.924 46.6619C108.81 46.3352 108.637 46.0753 108.404 45.8821C108.171 45.6889 107.881 45.5923 107.535 45.5923C107.18 45.5923 106.884 45.6889 106.648 45.8821C106.415 46.0753 106.241 46.3352 106.124 46.6619C106.011 46.9858 105.954 47.348 105.954 47.7486C105.954 48.1463 106.011 48.5071 106.124 48.831C106.241 49.1548 106.415 49.4134 106.648 49.6065C106.884 49.7969 107.18 49.892 107.535 49.892ZM113.574 47.1648V51H112.032V44.4545H113.506V45.5668H113.583C113.734 45.2003 113.974 44.9091 114.303 44.6932C114.636 44.4773 115.046 44.3693 115.535 44.3693C115.986 44.3693 116.38 44.4659 116.715 44.6591C117.053 44.8523 117.315 45.1321 117.499 45.4986C117.687 45.8651 117.779 46.3097 117.776 46.8324V51H116.234V47.071C116.234 46.6335 116.12 46.2912 115.893 46.044C115.668 45.7969 115.357 45.6733 114.959 45.6733C114.69 45.6733 114.449 45.733 114.239 45.8523C114.032 45.9687 113.868 46.1378 113.749 46.3594C113.633 46.581 113.574 46.8494 113.574 47.1648ZM121.288 51.1321C120.873 51.1321 120.5 51.0582 120.167 50.9105C119.838 50.7599 119.576 50.5384 119.383 50.2457C119.193 49.9531 119.098 49.5923 119.098 49.1634C119.098 48.794 119.166 48.4886 119.302 48.2472C119.438 48.0057 119.625 47.8125 119.86 47.6676C120.096 47.5227 120.362 47.4134 120.657 47.3395C120.955 47.2628 121.264 47.2074 121.582 47.1733C121.965 47.1335 122.276 47.098 122.515 47.0668C122.754 47.0327 122.927 46.9815 123.035 46.9134C123.146 46.8423 123.201 46.733 123.201 46.5852V46.5597C123.201 46.2386 123.106 45.9901 122.916 45.8139C122.725 45.6378 122.451 45.5497 122.093 45.5497C121.715 45.5497 121.416 45.6321 121.194 45.7969C120.975 45.9616 120.828 46.1562 120.751 46.3807L119.311 46.1761C119.424 45.7784 119.612 45.446 119.873 45.179C120.134 44.9091 120.454 44.7074 120.832 44.5739C121.21 44.4375 121.627 44.3693 122.085 44.3693C122.4 44.3693 122.714 44.4062 123.026 44.4801C123.339 44.554 123.625 44.6761 123.883 44.8466C124.142 45.0142 124.349 45.2429 124.505 45.5327C124.664 45.8224 124.744 46.1847 124.744 46.6193V51H123.261V50.1009H123.21C123.116 50.2827 122.984 50.4531 122.813 50.6122C122.646 50.7685 122.434 50.8949 122.178 50.9915C121.926 51.0852 121.629 51.1321 121.288 51.1321ZM121.688 49.9986C121.998 49.9986 122.267 49.9375 122.494 49.8153C122.721 49.6903 122.896 49.5256 123.018 49.321C123.143 49.1165 123.205 48.8935 123.205 48.652V47.8807C123.157 47.9205 123.075 47.9574 122.958 47.9915C122.845 48.0256 122.717 48.0554 122.575 48.081C122.433 48.1065 122.292 48.1293 122.153 48.1491C122.014 48.169 121.893 48.1861 121.791 48.2003C121.561 48.2315 121.355 48.2827 121.173 48.3537C120.991 48.4247 120.848 48.5241 120.742 48.652C120.637 48.777 120.585 48.9389 120.585 49.1378C120.585 49.4219 120.688 49.6364 120.896 49.7812C121.103 49.9261 121.367 49.9986 121.688 49.9986ZM127.898 42.2727V51H126.355V42.2727H127.898Z" fill="#0D2B45"/>
</svg>
