<svg width="166" height="54" viewBox="0 0 166 54" fill="none" xmlns="http://www.w3.org/2000/svg">
<g opacity="0.9">
<path d="M26.1143 44.8115L15.71 47.6963L5.30469 44.8115V35.7461L15.71 38.6309L26.1143 35.7461V44.8115ZM42.082 28.7412L15.6064 35.7461L5.51074 32.8613V23.7959L15.6064 26.6807L42.082 19.6758V28.7412ZM36.1064 3.81055L46.2021 7.51953H46.2031V16.585L15.6064 23.5898L5.51074 20.7061V11.6406L15.6064 14.5244L45.4033 7.70215L36.1064 4.63477L6.23242 11.8457L5.51074 11.6396V10.8154L36.1064 3.81055Z" fill="#0D2B45"/>
</g>
<path opacity="0.9" d="M58.28 32V31.36C59.2667 31.1733 60.04 30.8267 60.6 30.32C61.1867 29.8133 61.48 28.9067 61.48 27.6V7.6C61.48 6.29333 61.1867 5.38667 60.6 4.88C60.04 4.37333 59.2667 4.02667 58.28 3.84V3.2H61.48H67.68V27.6C67.68 28.9067 67.9733 29.8133 68.56 30.32C69.1733 30.8267 69.9867 31.1733 71 31.36V32H67.68H61.48H58.28ZM66.48 16.52H71.6C72.9067 16.52 73.8133 16.2133 74.32 15.6C74.8267 14.96 75.1733 14.12 75.36 13.08H76V16.52V17.96V21.4H75.36C75.1733 20.36 74.8267 19.5333 74.32 18.92C73.8133 18.28 72.9067 17.96 71.6 17.96H66.48V16.52ZM66.48 3.2H80.12L80.24 4.48L80.76 10.72L80.04 10.76C79.6133 9 78.84 7.54667 77.72 6.4C76.6267 5.22667 74.9333 4.64 72.64 4.64H66.48V3.2ZM80.9409 32V31.4C81.8209 31.24 82.5143 30.9333 83.0209 30.48C83.5543 30 83.8209 29.1467 83.8209 27.92V15.92C83.8209 14.6933 83.5543 13.8533 83.0209 13.4C82.5143 12.92 81.8209 12.6 80.9409 12.44V11.84H83.8209H89.5809V27.92C89.5809 29.1467 89.8343 30 90.3409 30.48C90.8743 30.9333 91.5809 31.24 92.4609 31.4V32H89.5809H83.8209H80.9409ZM85.9409 8.64C85.0076 8.64 84.1943 8.30666 83.5009 7.64C82.8343 6.97333 82.5009 6.18667 82.5009 5.28C82.5009 4.32 82.8343 3.52 83.5009 2.88C84.1676 2.21333 84.9809 1.88 85.9409 1.88C86.8743 1.88 87.6743 2.21333 88.3409 2.88C89.0343 3.52 89.3809 4.32 89.3809 5.28C89.3809 6.21333 89.0343 7.01333 88.3409 7.68C87.6476 8.32 86.8476 8.64 85.9409 8.64ZM105.699 32V31.4C106.419 31.24 106.992 30.9333 107.419 30.48C107.845 30 108.059 29.1467 108.059 27.92V18.88C108.059 17.6267 107.765 16.72 107.179 16.16C106.592 15.5733 105.845 15.2667 104.939 15.24C104.245 15.2133 103.552 15.36 102.859 15.68C102.165 16 101.525 16.4667 100.939 17.08V16.28C101.499 14.9467 102.352 13.84 103.499 12.96C104.672 12.0533 106.045 11.6 107.619 11.6C108.739 11.6 109.765 11.8533 110.699 12.36C111.659 12.84 112.419 13.5733 112.979 14.56C113.565 15.5467 113.859 16.72 113.859 18.08V27.92C113.859 29.1467 114.112 30 114.619 30.48C115.125 30.9333 115.792 31.24 116.619 31.4V32H113.859H108.059H105.699ZM92.7387 32V31.4C93.5921 31.24 94.2587 30.9333 94.7387 30.48C95.2454 30 95.4987 29.1467 95.4987 27.92V15.92C95.4987 14.6933 95.2454 13.8533 94.7387 13.4C94.2587 12.92 93.5921 12.6 92.7387 12.44V11.84H95.4987H101.339V27.92C101.339 29.1467 101.539 30 101.939 30.48C102.365 30.9333 102.939 31.24 103.659 31.4V32H101.339H95.4987H92.7387ZM135.827 21.84C135.827 20.5067 135.36 19.6 134.427 19.12C133.493 18.6133 132.2 18.2667 130.547 18.08V17.4H135.827H141.467H144.347V18.08C143.467 18.2667 142.76 18.6133 142.227 19.12C141.72 19.6 141.467 20.5067 141.467 21.84V29.44L135.827 30.68V21.84ZM131.387 32.48C128.56 32.48 126.04 31.8933 123.827 30.72C121.613 29.5467 119.88 27.8667 118.627 25.68C117.373 23.4933 116.747 20.9333 116.747 18C116.747 15.0933 117.4 12.4933 118.707 10.2C120.013 7.88 121.813 6.06667 124.107 4.76C126.4 3.45333 128.96 2.8 131.787 2.8C133.093 2.8 134.52 2.94667 136.067 3.24C137.64 3.50666 139.24 3.94666 140.867 4.56V12.6H140.267C139.547 10.2 138.467 8.21333 137.027 6.64C135.587 5.04 133.893 4.24 131.947 4.24C130.293 4.24 128.827 4.81333 127.547 5.96C126.267 7.08 125.267 8.64 124.547 10.64C123.853 12.64 123.507 14.8667 123.507 17.32C123.507 19.9333 123.84 22.28 124.507 24.36C125.2 26.44 126.173 28.08 127.427 29.28C128.68 30.4533 130.147 31.04 131.827 31.04C133.267 31.04 134.6 30.6667 135.827 29.92C137.053 29.1733 138.213 28.2267 139.307 27.08L141.467 29.44C140.107 30.4 138.573 31.1467 136.867 31.68C135.187 32.2133 133.36 32.48 131.387 32.48ZM154.607 32.4C152.847 32.4 151.181 31.9867 149.607 31.16C148.034 30.3067 146.767 29.08 145.807 27.48C144.874 25.88 144.407 24.0133 144.407 21.88C144.407 19.7467 144.874 17.9067 145.807 16.36C146.767 14.7867 148.034 13.6 149.607 12.8C151.181 12 152.847 11.6 154.607 11.6C156.394 11.6 158.074 12.0133 159.647 12.84C161.221 13.64 162.487 14.8267 163.447 16.4C164.434 17.9467 164.927 19.7733 164.927 21.88C164.927 24.0133 164.434 25.88 163.447 27.48C162.487 29.08 161.221 30.3067 159.647 31.16C158.074 31.9867 156.394 32.4 154.607 32.4ZM154.607 31.12C155.567 31.12 156.341 30.6667 156.927 29.76C157.541 28.8533 157.967 27.72 158.207 26.36C158.474 25 158.607 23.5067 158.607 21.88C158.607 20.2533 158.474 18.7867 158.207 17.48C157.967 16.1733 157.541 15.08 156.927 14.2C156.341 13.32 155.567 12.88 154.607 12.88C153.647 12.88 152.874 13.32 152.287 14.2C151.727 15.08 151.327 16.1733 151.087 17.48C150.847 18.76 150.727 20.2267 150.727 21.88C150.727 24.5467 151.021 26.76 151.607 28.52C152.194 30.2533 153.194 31.12 154.607 31.12Z" fill="#0D2B45"/>
<path opacity="0.8" d="M62.108 44.4545V45.6477H58.2386V44.4545H62.108ZM59.206 51V43.8366C59.206 43.3963 59.2969 43.0298 59.4787 42.7372C59.6634 42.4446 59.9105 42.2259 60.2202 42.081C60.5298 41.9361 60.8736 41.8636 61.2514 41.8636C61.5185 41.8636 61.7557 41.8849 61.9631 41.9276C62.1705 41.9702 62.3239 42.0085 62.4233 42.0426L62.1165 43.2358C62.0511 43.2159 61.9688 43.196 61.8693 43.1761C61.7699 43.1534 61.6591 43.142 61.5369 43.142C61.25 43.142 61.0469 43.2116 60.9276 43.3509C60.8111 43.4872 60.7528 43.6832 60.7528 43.9389V51H59.206ZM65.9851 51.1278C65.3459 51.1278 64.7919 50.9872 64.3231 50.706C63.8544 50.4247 63.4908 50.0312 63.2322 49.5256C62.9765 49.0199 62.8487 48.429 62.8487 47.7528C62.8487 47.0767 62.9765 46.4844 63.2322 45.9759C63.4908 45.4673 63.8544 45.0724 64.3231 44.7912C64.7919 44.5099 65.3459 44.3693 65.9851 44.3693C66.6243 44.3693 67.1783 44.5099 67.647 44.7912C68.1158 45.0724 68.478 45.4673 68.7337 45.9759C68.9922 46.4844 69.1214 47.0767 69.1214 47.7528C69.1214 48.429 68.9922 49.0199 68.7337 49.5256C68.478 50.0312 68.1158 50.4247 67.647 50.706C67.1783 50.9872 66.6243 51.1278 65.9851 51.1278ZM65.9936 49.892C66.3402 49.892 66.63 49.7969 66.8629 49.6065C67.0959 49.4134 67.2692 49.1548 67.3828 48.831C67.4993 48.5071 67.5575 48.1463 67.5575 47.7486C67.5575 47.348 67.4993 46.9858 67.3828 46.6619C67.2692 46.3352 67.0959 46.0753 66.8629 45.8821C66.63 45.6889 66.3402 45.5923 65.9936 45.5923C65.6385 45.5923 65.343 45.6889 65.1072 45.8821C64.8743 46.0753 64.6996 46.3352 64.5831 46.6619C64.4694 46.9858 64.4126 47.348 64.4126 47.7486C64.4126 48.1463 64.4694 48.5071 64.5831 48.831C64.6996 49.1548 64.8743 49.4134 65.1072 49.6065C65.343 49.7969 65.6385 49.892 65.9936 49.892ZM70.4907 51V44.4545H71.9865V45.5455H72.0547C72.174 45.1676 72.3785 44.8764 72.6683 44.6719C72.9609 44.4645 73.2947 44.3608 73.6697 44.3608C73.7549 44.3608 73.8501 44.3651 73.9552 44.3736C74.0632 44.3793 74.1527 44.3892 74.2237 44.4034V45.8224C74.1584 45.7997 74.0547 45.7798 73.9126 45.7628C73.7734 45.7429 73.6385 45.733 73.5078 45.733C73.2265 45.733 72.9737 45.794 72.7493 45.9162C72.5277 46.0355 72.353 46.2017 72.2251 46.4148C72.0973 46.6278 72.0334 46.8736 72.0334 47.152V51H70.4907ZM78.4133 51V42.2727H81.7542C82.3849 42.2727 82.909 42.3722 83.3266 42.571C83.7471 42.767 84.061 43.0355 84.2684 43.3764C84.4786 43.7173 84.5837 44.1037 84.5837 44.5355C84.5837 44.8906 84.5156 45.1946 84.3792 45.4474C84.2428 45.6974 84.0596 45.9006 83.8295 46.0568C83.5994 46.2131 83.3423 46.3253 83.0582 46.3935V46.4787C83.3678 46.4957 83.6647 46.5909 83.9488 46.7642C84.2357 46.9347 84.4701 47.1761 84.6519 47.4886C84.8338 47.8011 84.9247 48.179 84.9247 48.6222C84.9247 49.0739 84.8153 49.4801 84.5965 49.8409C84.3778 50.1989 84.0482 50.4815 83.6079 50.6889C83.1676 50.8963 82.6136 51 81.946 51H78.4133ZM79.9943 49.679H81.6945C82.2684 49.679 82.6818 49.5696 82.9346 49.3509C83.1903 49.1293 83.3181 48.8452 83.3181 48.4986C83.3181 48.2401 83.2542 48.0071 83.1264 47.7997C82.9985 47.5895 82.8167 47.4247 82.5809 47.3054C82.3451 47.1832 82.0639 47.1222 81.7372 47.1222H79.9943V49.679ZM79.9943 45.9844H81.5582C81.8309 45.9844 82.0766 45.9347 82.2954 45.8352C82.5141 45.733 82.686 45.5895 82.811 45.4048C82.9389 45.2173 83.0028 44.9957 83.0028 44.7401C83.0028 44.402 82.8835 44.1236 82.6448 43.9048C82.409 43.6861 82.0582 43.5767 81.5923 43.5767H79.9943V45.9844ZM90.4637 48.2472V44.4545H92.0063V51H90.5106V49.8366H90.4424C90.2947 50.2031 90.0518 50.5028 89.7137 50.7358C89.3785 50.9687 88.9651 51.0852 88.4736 51.0852C88.0447 51.0852 87.6654 50.9901 87.3359 50.7997C87.0092 50.6065 86.7535 50.3267 86.5688 49.9602C86.3842 49.5909 86.2918 49.1449 86.2918 48.6222V44.4545H87.8344V48.3835C87.8344 48.7983 87.9481 49.1278 88.1754 49.3722C88.4026 49.6165 88.7009 49.7386 89.0702 49.7386C89.2975 49.7386 89.5177 49.6832 89.7308 49.5724C89.9438 49.4616 90.1185 49.2969 90.2549 49.0781C90.3941 48.8565 90.4637 48.5795 90.4637 48.2472ZM98.8259 46.1847L97.4197 46.3381C97.3799 46.196 97.3103 46.0625 97.2109 45.9375C97.1143 45.8125 96.9836 45.7116 96.8188 45.6349C96.654 45.5582 96.4523 45.5199 96.2137 45.5199C95.8927 45.5199 95.6228 45.5895 95.404 45.7287C95.1881 45.8679 95.0816 46.0483 95.0844 46.2699C95.0816 46.4602 95.1512 46.6151 95.2932 46.7344C95.4381 46.8537 95.6768 46.9517 96.0091 47.0284L97.1256 47.267C97.7449 47.4006 98.2052 47.6122 98.5063 47.902C98.8103 48.1918 98.9637 48.571 98.9665 49.0398C98.9637 49.4517 98.843 49.8153 98.6043 50.1307C98.3685 50.4432 98.0404 50.6875 97.6199 50.8636C97.1995 51.0398 96.7165 51.1278 96.1711 51.1278C95.3699 51.1278 94.7251 50.9602 94.2364 50.625C93.7478 50.2869 93.4566 49.8168 93.3628 49.2145L94.8671 49.0696C94.9353 49.3651 95.0802 49.5881 95.3018 49.7386C95.5234 49.8892 95.8117 49.9645 96.1668 49.9645C96.5333 49.9645 96.8273 49.8892 97.0489 49.7386C97.2734 49.5881 97.3856 49.402 97.3856 49.1804C97.3856 48.9929 97.3131 48.8381 97.1682 48.7159C97.0262 48.5937 96.8046 48.5 96.5035 48.4347L95.387 48.2003C94.7591 48.0696 94.2947 47.8494 93.9935 47.5398C93.6924 47.2273 93.5432 46.8324 93.5461 46.3551C93.5432 45.9517 93.6526 45.6023 93.8742 45.3068C94.0986 45.0085 94.4097 44.7784 94.8074 44.6165C95.208 44.4517 95.6697 44.3693 96.1924 44.3693C96.9594 44.3693 97.5631 44.5327 98.0035 44.8594C98.4466 45.1861 98.7208 45.6278 98.8259 46.1847ZM100.299 51V44.4545H101.841V51H100.299ZM101.074 43.5256C100.83 43.5256 100.62 43.4446 100.443 43.2827C100.267 43.1179 100.179 42.9205 100.179 42.6903C100.179 42.4574 100.267 42.2599 100.443 42.098C100.62 41.9332 100.83 41.8509 101.074 41.8509C101.321 41.8509 101.532 41.9332 101.705 42.098C101.881 42.2599 101.969 42.4574 101.969 42.6903C101.969 42.9205 101.881 43.1179 101.705 43.2827C101.532 43.4446 101.321 43.5256 101.074 43.5256ZM105.03 47.1648V51H103.487V44.4545H104.962V45.5668H105.039C105.189 45.2003 105.429 44.9091 105.759 44.6932C106.091 44.4773 106.502 44.3693 106.99 44.3693C107.442 44.3693 107.835 44.4659 108.171 44.6591C108.509 44.8523 108.77 45.1321 108.955 45.4986C109.142 45.8651 109.235 46.3097 109.232 46.8324V51H107.689V47.071C107.689 46.6335 107.576 46.2912 107.348 46.044C107.124 45.7969 106.813 45.6733 106.415 45.6733C106.145 45.6733 105.905 45.733 105.695 45.8523C105.487 45.9687 105.324 46.1378 105.205 46.3594C105.088 46.581 105.03 46.8494 105.03 47.1648ZM113.758 51.1278C113.101 51.1278 112.535 50.9915 112.057 50.7188C111.583 50.4432 111.218 50.054 110.962 49.5511C110.707 49.0455 110.579 48.4503 110.579 47.7656C110.579 47.0923 110.707 46.5014 110.962 45.9929C111.221 45.4815 111.582 45.0838 112.045 44.7997C112.508 44.5128 113.052 44.3693 113.677 44.3693C114.08 44.3693 114.461 44.4347 114.819 44.5653C115.18 44.6932 115.498 44.892 115.773 45.1619C116.052 45.4318 116.27 45.7756 116.43 46.1932C116.589 46.608 116.668 47.1023 116.668 47.6761V48.1491H111.303V47.1094H115.19C115.187 46.8139 115.123 46.5511 114.998 46.321C114.873 46.0881 114.698 45.9048 114.474 45.7713C114.252 45.6378 113.993 45.571 113.698 45.571C113.383 45.571 113.106 45.6477 112.867 45.8011C112.628 45.9517 112.442 46.1506 112.309 46.3977C112.178 46.642 112.111 46.9105 112.109 47.2031V48.1108C112.109 48.4915 112.178 48.8182 112.317 49.0909C112.457 49.3608 112.651 49.5682 112.901 49.7131C113.151 49.8551 113.444 49.9261 113.779 49.9261C114.003 49.9261 114.207 49.8949 114.388 49.8324C114.57 49.767 114.728 49.6719 114.861 49.5469C114.995 49.4219 115.096 49.267 115.164 49.0824L116.604 49.2443C116.513 49.625 116.34 49.9574 116.084 50.2415C115.832 50.5227 115.508 50.7415 115.113 50.8977C114.718 51.0511 114.266 51.1278 113.758 51.1278ZM123.207 46.1847L121.8 46.3381C121.761 46.196 121.691 46.0625 121.591 45.9375C121.495 45.8125 121.364 45.7116 121.199 45.6349C121.035 45.5582 120.833 45.5199 120.594 45.5199C120.273 45.5199 120.003 45.5895 119.785 45.7287C119.569 45.8679 119.462 46.0483 119.465 46.2699C119.462 46.4602 119.532 46.6151 119.674 46.7344C119.819 46.8537 120.057 46.9517 120.39 47.0284L121.506 47.267C122.126 47.4006 122.586 47.6122 122.887 47.902C123.191 48.1918 123.344 48.571 123.347 49.0398C123.344 49.4517 123.224 49.8153 122.985 50.1307C122.749 50.4432 122.421 50.6875 122.001 50.8636C121.58 51.0398 121.097 51.1278 120.552 51.1278C119.751 51.1278 119.106 50.9602 118.617 50.625C118.128 50.2869 117.837 49.8168 117.743 49.2145L119.248 49.0696C119.316 49.3651 119.461 49.5881 119.682 49.7386C119.904 49.8892 120.192 49.9645 120.547 49.9645C120.914 49.9645 121.208 49.8892 121.43 49.7386C121.654 49.5881 121.766 49.402 121.766 49.1804C121.766 48.9929 121.694 48.8381 121.549 48.7159C121.407 48.5937 121.185 48.5 120.884 48.4347L119.768 48.2003C119.14 48.0696 118.675 47.8494 118.374 47.5398C118.073 47.2273 117.924 46.8324 117.927 46.3551C117.924 45.9517 118.033 45.6023 118.255 45.3068C118.479 45.0085 118.79 44.7784 119.188 44.6165C119.589 44.4517 120.05 44.3693 120.573 44.3693C121.34 44.3693 121.944 44.5327 122.384 44.8594C122.827 45.1861 123.101 45.6278 123.207 46.1847ZM129.852 46.1847L128.446 46.3381C128.406 46.196 128.337 46.0625 128.237 45.9375C128.141 45.8125 128.01 45.7116 127.845 45.6349C127.681 45.5582 127.479 45.5199 127.24 45.5199C126.919 45.5199 126.649 45.5895 126.431 45.7287C126.215 45.8679 126.108 46.0483 126.111 46.2699C126.108 46.4602 126.178 46.6151 126.32 46.7344C126.465 46.8537 126.703 46.9517 127.036 47.0284L128.152 47.267C128.772 47.4006 129.232 47.6122 129.533 47.902C129.837 48.1918 129.99 48.571 129.993 49.0398C129.99 49.4517 129.87 49.8153 129.631 50.1307C129.395 50.4432 129.067 50.6875 128.647 50.8636C128.226 51.0398 127.743 51.1278 127.198 51.1278C126.397 51.1278 125.752 50.9602 125.263 50.625C124.774 50.2869 124.483 49.8168 124.389 49.2145L125.894 49.0696C125.962 49.3651 126.107 49.5881 126.328 49.7386C126.55 49.8892 126.838 49.9645 127.193 49.9645C127.56 49.9645 127.854 49.8892 128.075 49.7386C128.3 49.5881 128.412 49.402 128.412 49.1804C128.412 48.9929 128.34 48.8381 128.195 48.7159C128.053 48.5937 127.831 48.5 127.53 48.4347L126.414 48.2003C125.786 48.0696 125.321 47.8494 125.02 47.5398C124.719 47.2273 124.57 46.8324 124.573 46.3551C124.57 45.9517 124.679 45.6023 124.901 45.3068C125.125 45.0085 125.436 44.7784 125.834 44.6165C126.235 44.4517 126.696 44.3693 127.219 44.3693C127.986 44.3693 128.59 44.5327 129.03 44.8594C129.473 45.1861 129.747 45.6278 129.852 46.1847Z" fill="#0D2B45"/>
</svg>
